<svg width="24" height="24" viewBox="0 0 24 24" fill="none" xmlns="http://www.w3.org/2000/svg">
<path d="M11.9999 21.5998C9.62605 21.5974 7.33771 20.7133 5.57879 19.1192C3.81988 17.525 2.71578 15.3343 2.48069 12.9721C2.2456 10.6099 2.89627 8.24464 4.30648 6.33507C5.71669 4.42549 7.7859 3.10777 10.1127 2.63754C12.4395 2.1673 14.8581 2.57808 16.8991 3.79017C18.9402 5.00226 20.4583 6.92927 21.159 9.19737C21.8597 11.4655 21.6929 13.913 20.6911 16.0651C19.6893 18.2172 17.9238 19.9204 15.7372 20.8445C14.5549 21.3451 13.2838 21.602 11.9999 21.5998Z" fill="#FFC400"/>
<path d="M12.0001 19.7223C16.2649 19.7223 19.7223 16.2649 19.7223 12.0001C19.7223 7.7352 16.2649 4.27783 12.0001 4.27783C7.7352 4.27783 4.27783 7.7352 4.27783 12.0001C4.27783 16.2649 7.7352 19.7223 12.0001 19.7223Z" fill="#FDD835"/>
<path d="M9.4209 9.79932C9.84159 9.79932 10.1826 9.45829 10.1826 9.0376C10.1826 8.61691 9.84159 8.27588 9.4209 8.27588C9.00021 8.27588 8.65918 8.61691 8.65918 9.0376C8.65918 9.45829 9.00021 9.79932 9.4209 9.79932Z" fill="#BF7732"/>
<path d="M14.6006 15.7407C15.0213 15.7407 15.3623 15.3997 15.3623 14.979C15.3623 14.5583 15.0213 14.2173 14.6006 14.2173C14.1799 14.2173 13.8389 14.5583 13.8389 14.979C13.8389 15.3997 14.1799 15.7407 14.6006 15.7407Z" fill="#BF7732"/>
<path d="M12.776 10.9863C12.7732 10.9881 12.7706 10.9902 12.7681 10.9925L12.7694 10.9912C12.7714 10.9894 12.7737 10.9876 12.776 10.9863Z" fill="#BF7732"/>
<path d="M12.8011 10.9785C12.7953 10.9785 12.7897 10.9795 12.7842 10.9817C12.7895 10.9795 12.7953 10.9785 12.8011 10.9785Z" fill="#BF7732"/>
<path d="M14.2721 9.14374L15.16 7.6058L14.2257 7.0664L13.1365 8.95299L13.134 8.95744L10.6365 13.2828C10.4588 13.501 10.145 13.5595 9.89973 13.4179C9.65447 13.2763 9.55336 12.9924 9.64172 12.7316C9.66948 12.6483 9.67227 12.5597 9.64968 12.4753C9.61919 12.3616 9.54655 12.2671 9.4459 12.2092C9.29632 12.1228 9.1192 12.1122 8.96024 12.1806C8.80303 12.248 8.68988 12.3817 8.65014 12.5473C8.48745 13.2242 8.79471 13.9401 9.39751 14.2881C9.56925 14.3871 9.75385 14.4518 9.94455 14.4813L8.84028 16.394L9.77483 16.9335L11.0843 14.6652L13.5613 10.3748C13.6496 10.249 13.7824 10.1653 13.9352 10.1384C14.089 10.1117 14.244 10.1473 14.3717 10.2388C14.5953 10.3987 14.6745 10.7065 14.5563 10.9548C14.43 11.219 14.1266 11.3483 13.8493 11.2554C13.7659 11.2279 13.6772 11.2251 13.5931 11.2477C13.4782 11.2785 13.3822 11.352 13.3229 11.455C13.2372 11.6032 13.2269 11.7787 13.2941 11.9362C13.361 12.0923 13.4933 12.2049 13.6575 12.245C13.9236 12.3099 14.1927 12.3039 14.4433 12.2368C14.6512 12.181 14.8461 12.0832 15.0155 11.9492C15.1849 11.8152 15.3288 11.6447 15.4347 11.4436C15.8194 10.7122 15.5705 9.7984 14.8683 9.36334C14.6854 9.24984 14.4819 9.17565 14.2721 9.14374ZM13.5502 9.2037L13.5511 9.20222C13.5525 9.20008 13.5542 9.19789 13.556 9.19615C13.5539 9.19848 13.552 9.20097 13.5502 9.2037Z" fill="#BF7732"/>
<path d="M12.776 10.9863C12.7732 10.9881 12.7706 10.9902 12.7681 10.9925L12.7694 10.9912C12.7714 10.9894 12.7737 10.9876 12.776 10.9863Z" fill="#BF7732"/>
<path d="M12.8011 10.9785C12.7953 10.9785 12.7897 10.9795 12.7842 10.9817C12.7895 10.9795 12.7953 10.9785 12.8011 10.9785Z" fill="#BF7732"/>
</svg>
